<svg xmlns="http://www.w3.org/2000/svg" viewBox="0 0 1600 900">
  <defs>
    <radialGradient id="g3" cx="25%" cy="70%" r="80%">
      <stop offset="0%" stop-color="#0d2e29"/>
      <stop offset="50%" stop-color="#131313"/>
      <stop offset="100%" stop-color="#0a0a0a"/>
    </radialGradient>
  </defs>
  <rect width="1600" height="900" fill="url(#g3)"/>
  <!-- growth / finance chart motif -->
  <polyline points="80,680 300,610 480,650 660,520 840,560 1020,400 1200,440 1380,260 1520,300"
    fill="none" stroke="#47eed0" stroke-width="4" opacity="0.7"/>
  <polyline points="80,680 300,610 480,650 660,520 840,560 1020,400 1200,440 1380,260 1520,300 1520,900 80,900"
    fill="#47eed0" opacity="0.06"/>
  <g fill="#47eed0">
    <circle cx="80" cy="680" r="6"/>
    <circle cx="300" cy="610" r="6"/>
    <circle cx="480" cy="650" r="6"/>
    <circle cx="660" cy="520" r="6"/>
    <circle cx="840" cy="560" r="6"/>
    <circle cx="1020" cy="400" r="6"/>
    <circle cx="1200" cy="440" r="6"/>
    <circle cx="1380" cy="260" r="7"/>
    <circle cx="1520" cy="300" r="7"/>
  </g>
  <g stroke="#3c3c3c" stroke-width="1">
    <line x1="0" y1="800" x2="1600" y2="800"/>
    <line x1="0" y1="600" x2="1600" y2="600"/>
    <line x1="0" y1="400" x2="1600" y2="400"/>
  </g>
  <g fill="#e9c400" opacity="0.7">
    <circle cx="1450" cy="150" r="4"/>
    <circle cx="1500" cy="190" r="3"/>
    <circle cx="150" cy="180" r="3"/>
  </g>
</svg>
